<?xml version="1.0" standalone="no"?>
<!DOCTYPE svg PUBLIC "-//W3C//DTD SVG 20010904//EN"
 "http://www.w3.org/TR/2001/REC-SVG-20010904/DTD/svg10.dtd">
<svg version="1.0" xmlns="http://www.w3.org/2000/svg"
 width="626.000000pt" height="548.000000pt" viewBox="0 0 626.000000 548.000000"
 preserveAspectRatio="xMidYMid meet">
<metadata>
Created by potrace 1.16, written by Peter Selinger 2001-2019
</metadata>
<g transform="translate(0.000000,548.000000) scale(0.100000,-0.100000)"
fill="#000000" stroke="none">
<path d="M4788 4113 c24 -53 27 -69 27 -173 0 -126 -15 -175 -86 -298 -80
-135 -308 -327 -509 -426 -209 -104 -327 -125 -505 -91 -119 23 -175 66 -175
136 0 91 126 185 375 280 121 46 113 49 -24 9 -369 -110 -541 -257 -516 -440
8 -60 54 -158 123 -264 44 -67 52 -86 52 -126 0 -85 -90 -216 -242 -351 -160
-143 -271 -255 -328 -331 -68 -90 -133 -217 -155 -303 -19 -74 -19 -203 -1
-271 16 -63 67 -159 107 -205 27 -31 26 -30 -5 18 -64 97 -81 155 -80 273 0
117 16 170 82 284 48 83 216 249 324 320 109 72 280 157 381 190 156 51 318
55 369 9 54 -48 -15 -155 -152 -236 -77 -46 -30 -29 77 27 249 131 411 276
444 398 14 54 -3 111 -48 151 -19 17 -62 58 -94 89 -55 53 -59 61 -59 102 0
61 37 107 185 230 375 311 531 577 494 842 -8 60 -68 214 -83 214 -3 0 7 -26
22 -57z"/>
<path d="M3930 3471 c-97 -13 -232 -69 -227 -94 1 -6 -5 -11 -15 -9 -20 3 -62
-53 -54 -74 3 -8 2 -12 -4 -9 -6 4 -10 -5 -10 -20 0 -35 46 -80 96 -94 57 -16
168 -13 243 5 76 19 164 61 156 74 -3 5 0 12 6 16 8 4 9 3 5 -4 -13 -21 10
-13 33 12 14 15 20 30 16 37 -5 7 -4 10 2 6 19 -12 31 50 17 87 -9 23 -72 59
-94 53 -11 -3 -18 -1 -14 4 3 5 -6 9 -19 9 -14 0 -37 2 -53 4 -16 2 -54 1 -84
-3z m23 -18 c-7 -2 -21 -2 -30 0 -10 3 -4 5 12 5 17 0 24 -2 18 -5z m-63 -7
c0 -2 -15 -9 -32 -15 -30 -10 -31 -9 -14 4 18 14 46 20 46 11z m298 -82 c-3
-27 -4 -26 -9 8 -3 22 -1 34 4 29 5 -5 7 -21 5 -37z m-530 -149 c-3 -3 -9 2
-12 12 -6 14 -5 15 5 6 7 -7 10 -15 7 -18z m37 -23 c-3 -3 -11 0 -18 7 -9 10
-8 11 6 5 10 -3 15 -9 12 -12z m163 -19 c-21 -2 -57 -2 -80 0 -24 2 -7 4 37 4
44 0 63 -2 43 -4z"/>
<path d="M2210 3170 c-47 -10 -125 -30 -175 -45 -49 -15 -100 -29 -113 -32
-12 -3 -25 -10 -29 -16 -4 -6 2 -8 18 -3 263 74 508 95 617 51 60 -24 84 -62
83 -132 -2 -185 -154 -389 -382 -512 -90 -48 -213 -83 -286 -80 -29 2 -56 -1
-60 -5 -5 -5 33 -6 82 -3 299 17 639 297 686 564 15 83 0 132 -52 176 -22 19
-60 40 -84 46 -64 16 -207 12 -305 -9z"/>
<path d="M1332 3083 c-25 -36 -73 -163 -66 -175 3 -5 0 -7 -7 -6 -6 2 -30 -30
-51 -70 -42 -76 -47 -111 -8 -47 27 44 36 39 20 -10 -7 -20 -10 -45 -7 -56 3
-10 1 -17 -3 -14 -8 5 -40 -118 -40 -152 1 -12 22 5 68 54 l68 72 -4 -68 c-5
-82 9 -101 58 -81 29 12 111 109 133 158 6 12 14 22 19 22 5 0 6 -10 4 -22
-27 -126 -34 -207 -20 -221 20 -19 91 68 148 181 26 51 46 67 46 37 0 -9 7
-29 15 -46 15 -28 14 -32 -5 -59 -12 -17 -18 -35 -14 -41 4 -8 3 -9 -4 -5 -6
3 -16 -2 -21 -13 -23 -42 -4 -42 43 0 23 20 38 43 42 67 4 20 25 63 46 94 22
32 38 63 36 69 -2 6 -21 -16 -42 -50 -21 -33 -42 -61 -45 -61 -10 0 -31 62
-31 92 0 14 7 31 15 38 22 19 18 40 -8 40 -32 0 -47 -18 -47 -57 0 -39 -33
-109 -96 -204 -53 -80 -74 -93 -74 -46 0 18 7 59 15 92 9 32 14 64 11 71 -3 7
-1 14 3 16 4 2 21 41 36 88 32 99 39 110 72 110 17 0 22 -4 17 -12 -4 -7 1 -6
12 3 14 12 79 24 234 43 118 15 218 30 222 34 4 4 4 13 0 19 -6 9 -52 5 -192
-18 -102 -16 -197 -34 -212 -39 -19 -6 -30 -5 -34 3 -4 7 -4 9 1 5 11 -11 78
99 71 117 -10 28 -23 15 -55 -55 -22 -51 -38 -73 -57 -80 -14 -6 -26 -10 -28
-10 -1 0 -2 9 -2 19 0 11 3 18 7 15 10 -6 31 51 27 73 -7 37 -33 18 -57 -43
-17 -45 -30 -64 -50 -71 -25 -10 -25 -11 -3 -12 26 -1 26 0 6 -51 -14 -34 -14
-43 -3 -58 13 -15 12 -16 -2 -4 -15 11 -21 5 -53 -51 -43 -78 -121 -167 -146
-167 -15 0 -19 10 -22 55 -1 31 0 64 4 73 5 14 7 12 7 -6 1 -28 26 -39 48 -21
26 22 53 90 53 137 0 38 -2 42 -26 42 -14 0 -22 -4 -19 -10 4 -6 -1 -7 -11 -3
-14 5 -16 3 -11 -11 4 -10 3 -15 -3 -11 -11 7 -52 -74 -44 -87 3 -4 2 -7 -3
-6 -5 2 -36 -26 -70 -62 l-61 -65 59 175 c32 96 64 183 69 193 6 10 8 22 5 28
-4 5 -1 8 6 7 6 -2 14 3 17 11 3 9 0 11 -8 6 -9 -5 -11 -4 -6 4 4 6 12 9 17 6
5 -3 19 14 31 39 18 37 19 47 8 60 -18 22 -26 20 -48 -11z m4 -30 c-8 -15 -15
-25 -16 -21 0 12 23 58 27 54 3 -2 -2 -17 -11 -33z m34 -3 c0 -5 -5 -10 -11
-10 -5 0 -7 5 -4 10 3 6 8 10 11 10 2 0 4 -4 4 -10z m377 -32 c-3 -8 -6 -5 -6
6 -1 11 2 17 5 13 3 -3 4 -12 1 -19z m-27 -48 c-6 -11 -13 -20 -16 -20 -2 0 0
9 6 20 6 11 13 20 16 20 2 0 0 -9 -6 -20z m367 -16 c-3 -3 -12 -4 -19 -1 -8 3
-5 6 6 6 11 1 17 -2 13 -5z m-54 -11 c-7 -2 -19 -2 -25 0 -7 3 -2 5 12 5 14 0
19 -2 13 -5z m-70 -10 c-7 -2 -21 -2 -30 0 -10 3 -4 5 12 5 17 0 24 -2 18 -5z
m-70 -10 c-7 -2 -19 -2 -25 0 -7 3 -2 5 12 5 14 0 19 -2 13 -5z m-76 -9 c-3
-3 -12 -4 -19 -1 -8 3 -5 6 6 6 11 1 17 -2 13 -5z m-567 -48 c0 -2 -8 -10 -17
-17 -16 -13 -17 -12 -4 4 13 16 21 21 21 13z m323 -41 c-3 -9 -8 -14 -10 -11
-3 3 -2 9 2 15 9 16 15 13 8 -4z m-176 -99 c-1 -24 -6 -41 -11 -38 -5 3 -6 -2
-3 -12 4 -10 3 -15 -3 -11 -6 3 -10 1 -10 -4 0 -6 -7 -11 -15 -11 -20 0 -19
26 5 78 25 54 40 54 37 -2z m20 12 c-3 -7 -5 -2 -5 12 0 14 2 19 5 13 2 -7 2
-19 0 -25z m-76 -11 c-10 -9 -11 -8 -5 6 3 10 9 15 12 12 3 -3 0 -11 -7 -18z
m359 -7 c0 -5 -4 -10 -10 -10 -5 0 -10 5 -10 10 0 6 5 10 10 10 6 0 10 -4 10
-10z m40 -110 c0 -8 -7 -2 -15 14 -19 36 -19 45 0 20 8 -10 14 -26 15 -34z
m-10 -42 c0 -6 -3 -8 -7 -5 -3 4 -13 1 -22 -6 -14 -11 -14 -10 -2 6 15 20 31
22 31 5z"/>
<path d="M2215 3098 c-17 -55 -134 -572 -130 -576 2 -3 7 1 9 9 20 57 166 555
166 565 0 17 -39 18 -45 2z"/>
<path d="M2747 2889 c-26 -15 -63 -79 -87 -148 -38 -113 -20 -162 35 -98 35
40 45 45 45 23 0 -8 6 -16 12 -18 10 -4 10 -10 1 -31 -22 -47 0 -29 85 68 45
52 87 95 92 95 6 0 10 -27 10 -59 0 -63 10 -81 30 -56 18 21 28 19 32 -7 2
-17 11 -24 31 -26 22 -3 37 7 81 52 l54 56 -5 -62 c-6 -83 9 -108 56 -88 18 7
47 31 65 54 53 65 116 168 110 178 -4 5 -25 -21 -48 -59 -44 -72 -124 -163
-144 -163 -18 0 -25 25 -18 64 5 27 11 33 25 29 51 -13 118 152 76 187 -23 19
-57 0 -80 -46 -40 -79 -136 -184 -167 -184 -52 0 16 160 79 190 36 16 45 50
14 50 -32 0 -68 -38 -111 -118 -57 -107 -61 -108 -59 -29 3 107 -22 111 -96
18 -21 -28 -40 -49 -42 -47 -2 2 11 35 29 75 25 57 29 74 19 84 -10 9 -15 8
-27 -7 -8 -11 -14 -26 -14 -34 0 -14 -58 -122 -65 -122 -3 0 -3 16 -2 36 3 54
-19 52 -37 -3 -19 -58 -52 -113 -67 -113 -32 0 34 153 90 208 31 30 38 42 28
50 -8 7 -18 7 -30 1z m510 -94 c-10 -69 -47 -117 -47 -60 0 26 35 105 47 105
3 0 3 -20 0 -45z"/>
<path d="M3015 1160 c3 -5 26 -10 51 -10 28 0 43 4 39 10 -3 6 -26 10 -51 10
-28 0 -43 -4 -39 -10z"/>
</g>
</svg>
